<?xml version="1.0" encoding="UTF-8"?> <svg xmlns="http://www.w3.org/2000/svg" xmlns:xlink="http://www.w3.org/1999/xlink" id="Group_26" data-name="Group 26" width="234.573" height="63.503" viewBox="0 0 234.573 63.503"><defs><clipPath id="clip-path"><rect id="Rectangle_41" data-name="Rectangle 41" width="234.573" height="63.503" fill="none"></rect></clipPath></defs><g id="Group_25" data-name="Group 25" clip-path="url(#clip-path)"><path id="Path_138" data-name="Path 138" d="M7.88,40.106c2.307-.149,2.83-3.8,3.5-7.071.849-4.163,2.968-8.621,6.867-8.66,4.893-.048,7.35,5.236,9.037,10.969.375-3.735.706-8.61,3.427-11.515,2.276-2.431,6.666-2.737,8.961-.179,5,5.575,1.691,14.246,4.89,20.584,1.472,2.916,4.128,2.083,6.192.169a119.4,119.4,0,0,0,8.564-9.427q2.088-2.4,4.15-4.826A31.753,31.753,0,0,0,0,31.552c.252,3,4.08,8.8,7.88,8.554" transform="translate(0 0)" fill="#c00020"></path><path id="Path_139" data-name="Path 139" d="M60.36,72.631c-2.568,2.856-5.232,5.244-8.879,4.2-4.566-1.3-4.524-7.062-5.358-10.888-.216-.982-.447-2.5-1.34-3.144-1.44-1.033-2.266,1.049-2.234,2.2A20.975,20.975,0,0,1,41.359,74c-.855,2.262-2.9,3.5-4.912,2.977-3.959-1.026-5.156-7-6.132-10.3-.342-1.16-.646-2.816-1.582-3.683-.871-.808-1.919.122-2.186,1.028-1.423,4.844.182,7.866-1.34,12.432-1.265,3.8-3.8,5.061-6.5,4.035a31.753,31.753,0,0,0,53.045-23.36C68.07,62.314,64.6,67.917,60.36,72.631" transform="translate(-8.246 -25.191)" fill="#c00020"></path><path id="Path_140" data-name="Path 140" d="M150.74,34.619a9.8,9.8,0,0,1,3.835.658,6.132,6.132,0,0,1,2.482,1.858,7.354,7.354,0,0,1,1.335,2.873,16.317,16.317,0,0,1,.394,3.737V54.3c0,.2-.031.326-.1.376a.714.714,0,0,1-.4.074h-1.714a.832.832,0,0,1-.419-.074c-.076-.05-.113-.175-.113-.376V44.308a9.683,9.683,0,0,0-1.235-5.483q-1.234-1.764-4.415-1.766a8.2,8.2,0,0,0-1.273.113,12.519,12.519,0,0,0-1.44.319q-.73.208-1.422.471a7.759,7.759,0,0,0-1.256.6,7.711,7.711,0,0,1,.713,2.385,22.86,22.86,0,0,1,.188,3.134V54.3c0,.2-.038.326-.115.376a.822.822,0,0,1-.418.074h-1.714a.724.724,0,0,1-.381-.074c-.077-.05-.114-.175-.114-.376V44.007a14.182,14.182,0,0,0-.281-2.985,5.432,5.432,0,0,0-.958-2.178,4.141,4.141,0,0,0-1.84-1.333,8.317,8.317,0,0,0-2.967-.451q-.452,0-1.427.057a16.859,16.859,0,0,0-2.291.319V54.258a.508.508,0,0,1-.113.395.667.667,0,0,1-.413.094h-1.689a.678.678,0,0,1-.395-.094.461.461,0,0,1-.131-.395V37.473A2.23,2.23,0,0,1,132.692,35c.3-.051.639-.1,1.015-.152s.764-.093,1.165-.13.789-.062,1.166-.075.7-.02.978-.02a12.275,12.275,0,0,1,3.817.507,7.015,7.015,0,0,1,2.689,1.633h.037A12.333,12.333,0,0,1,146.85,35.2a13,13,0,0,1,3.891-.582" transform="translate(-57.607 -15.263)" fill="#c00020"></path><path id="Path_141" data-name="Path 141" d="M204.1,53.021a.882.882,0,0,1-.526.9,14.2,14.2,0,0,1-3.605.976,27.124,27.124,0,0,1-3.68.263,12.4,12.4,0,0,1-3.942-.526,6.677,6.677,0,0,1-2.442-1.375,4.577,4.577,0,0,1-1.257-1.959,7.484,7.484,0,0,1-.358-2.316,6.991,6.991,0,0,1,.489-2.618,5.7,5.7,0,0,1,1.483-2.127,7,7,0,0,1,2.5-1.412,11.145,11.145,0,0,1,3.567-.509h4.995v-1a7.518,7.518,0,0,0-.187-1.721,2.9,2.9,0,0,0-.714-1.352,3.514,3.514,0,0,0-1.464-.869,7.837,7.837,0,0,0-2.441-.316,16.877,16.877,0,0,0-2.723.244,17.963,17.963,0,0,0-2.535.583,1.081,1.081,0,0,1-.414.056c-.1-.012-.176-.106-.224-.281l-.376-1.364a.428.428,0,0,1,.3-.572,13.208,13.208,0,0,1,1.465-.476q.789-.21,1.634-.362a15.49,15.49,0,0,1,1.708-.21q.863-.057,1.614-.057,3.644,0,5.389,1.615a6.133,6.133,0,0,1,1.747,4.732Zm-2.817-8.262h-4.844a13.79,13.79,0,0,0-1.615.113,5.232,5.232,0,0,0-1.785.547,3.853,3.853,0,0,0-1.426,1.283,4.036,4.036,0,0,0-.583,2.319,3.757,3.757,0,0,0,.432,1.886,3.355,3.355,0,0,0,1.164,1.208,4.784,4.784,0,0,0,1.672.622,11.019,11.019,0,0,0,1.953.169c.225,0,.532-.012.919-.037s.82-.063,1.3-.114a11.85,11.85,0,0,0,1.446-.245,12.4,12.4,0,0,0,1.37-.4Z" transform="translate(-83.014 -15.264)" fill="#c00020"></path><path id="Path_142" data-name="Path 142" d="M232.49,53.759a4.156,4.156,0,0,1-.583,1.126,1.292,1.292,0,0,1-1.033.338h-1.238a1.567,1.567,0,0,1-1-.281,2.521,2.521,0,0,1-.658-1.146l-6.346-18.1c-.1-.226-.013-.338.262-.338H224a.441.441,0,0,1,.3.075.921.921,0,0,1,.15.225L228.4,46.924l1.8,5.708h.188L232.115,47l3.832-11.341a.4.4,0,0,1,.45-.3h2.066c.224,0,.313.112.263.338Z" transform="translate(-97.7 -15.589)" fill="#c00020"></path><path id="Path_143" data-name="Path 143" d="M269.62,49.566a5.39,5.39,0,0,1-.526,2.441,4.833,4.833,0,0,1-1.464,1.746,6.722,6.722,0,0,1-2.216,1.052,10.316,10.316,0,0,1-2.779.356,21.3,21.3,0,0,1-3.661-.338,11.658,11.658,0,0,1-3.436-1.125.54.54,0,0,1-.282-.245.43.43,0,0,1,.057-.431l.6-1.276q.186-.45.713-.263a13.247,13.247,0,0,0,3.1,1.033,14.974,14.974,0,0,0,2.91.319,5.593,5.593,0,0,0,3.118-.788,2.644,2.644,0,0,0,1.2-2.366,2.713,2.713,0,0,0-1.276-2.366,17.522,17.522,0,0,0-3.605-1.728,23.69,23.69,0,0,1-2.741-1.125,7.956,7.956,0,0,1-1.841-1.222,4,4,0,0,1-1.032-1.445,4.978,4.978,0,0,1-.321-1.879,4.829,4.829,0,0,1,1.711-3.791,7.185,7.185,0,0,1,4.9-1.5,17.7,17.7,0,0,1,2.967.243,13.061,13.061,0,0,1,2.854.845.461.461,0,0,1,.262.639l-.6,1.464c-.076.126-.151.194-.225.206a.579.579,0,0,1-.3-.055,14.821,14.821,0,0,0-2.593-.789,12.809,12.809,0,0,0-2.44-.226,4.438,4.438,0,0,0-2.761.788,2.444,2.444,0,0,0-1.032,2.028,2.616,2.616,0,0,0,.262,1.221,2.686,2.686,0,0,0,.822.92,7.75,7.75,0,0,0,1.46.807q.9.394,2.17.845a25.166,25.166,0,0,1,2.32.976,9.132,9.132,0,0,1,1.909,1.221,5.411,5.411,0,0,1,1.309,1.615,4.652,4.652,0,0,1,.487,2.2" transform="translate(-112.523 -15.264)" fill="#c00020"></path><path id="Path_144" data-name="Path 144" d="M303.748,48.485a.516.516,0,0,1-.111.394.571.571,0,0,1-.37.094h-1.742a.657.657,0,0,1-.407-.093.516.516,0,0,1-.112-.394V37.506a7.065,7.065,0,0,0-1.314-4.7,5.184,5.184,0,0,0-4.131-1.518,17.832,17.832,0,0,0-2.515.207,8.945,8.945,0,0,0-2.48.692v16.3a.506.506,0,0,1-.113.394.672.672,0,0,1-.412.093h-1.691a.671.671,0,0,1-.394-.094c-.089-.062-.131-.193-.131-.394V22.01a.462.462,0,0,1,.131-.395.685.685,0,0,1,.394-.093h1.691a.662.662,0,0,1,.412.094.507.507,0,0,1,.113.394l-.006,7.788a12.325,12.325,0,0,1,2.848-.743,19.034,19.034,0,0,1,2.584-.21,9.647,9.647,0,0,1,3.616.6,5.869,5.869,0,0,1,2.4,1.728,7.24,7.24,0,0,1,1.349,2.741,14.139,14.139,0,0,1,.432,3.643Z" transform="translate(-126.899 -9.489)" fill="#c00020"></path><path id="Path_145" data-name="Path 145" d="M339.5,53.021a.88.88,0,0,1-.526.9,14.192,14.192,0,0,1-3.6.976,27.142,27.142,0,0,1-3.682.263,12.407,12.407,0,0,1-3.942-.526,6.678,6.678,0,0,1-2.441-1.375,4.584,4.584,0,0,1-1.258-1.959,7.5,7.5,0,0,1-.356-2.316,6.968,6.968,0,0,1,.489-2.618,5.693,5.693,0,0,1,1.482-2.127,7.008,7.008,0,0,1,2.5-1.412,11.15,11.15,0,0,1,3.567-.509h4.995v-1a7.547,7.547,0,0,0-.187-1.721,2.9,2.9,0,0,0-.714-1.352,3.51,3.51,0,0,0-1.464-.869,7.842,7.842,0,0,0-2.442-.316,16.868,16.868,0,0,0-2.722.244,17.99,17.99,0,0,0-2.536.583,1.077,1.077,0,0,1-.413.056c-.1-.012-.174-.106-.224-.281l-.376-1.364a.428.428,0,0,1,.3-.572,13.133,13.133,0,0,1,1.465-.476q.789-.21,1.634-.362a15.485,15.485,0,0,1,1.709-.21q.864-.057,1.615-.057,3.642,0,5.389,1.615a6.129,6.129,0,0,1,1.746,4.732Zm-2.816-8.262H331.84a13.773,13.773,0,0,0-1.614.113,5.233,5.233,0,0,0-1.784.547,3.852,3.852,0,0,0-1.427,1.283,4.044,4.044,0,0,0-.582,2.319,3.74,3.74,0,0,0,.432,1.886,3.354,3.354,0,0,0,1.164,1.208,4.784,4.784,0,0,0,1.672.622,11.015,11.015,0,0,0,1.952.169c.225,0,.533-.012.92-.037s.821-.063,1.3-.114a11.816,11.816,0,0,0,1.445-.245,12.41,12.41,0,0,0,1.37-.4Z" transform="translate(-142.712 -15.264)" fill="#c00020"></path><path id="Path_146" data-name="Path 146" d="M368.257,52.8a9.856,9.856,0,0,0,2.571-.338,9.145,9.145,0,0,0,2.123-.826c.2-.1.344-.125.432-.075a.726.726,0,0,1,.244.262l.6,1.314c.125.15.163.276.112.376a.939.939,0,0,1-.263.3,10.658,10.658,0,0,1-3.042,1.051,17.239,17.239,0,0,1-3.155.3q-4.206,0-6.364-2.515T359.357,45.1a14.326,14.326,0,0,1,.619-4.374,9.484,9.484,0,0,1,1.765-3.286,7.7,7.7,0,0,1,2.8-2.084,8.976,8.976,0,0,1,3.68-.732,12.959,12.959,0,0,1,2.817.3,10.257,10.257,0,0,1,2.666,1.014.429.429,0,0,1,.188.676l-.675,1.277a.5.5,0,0,1-.206.262c-.089.051-.233.026-.432-.075a15.3,15.3,0,0,0-2.009-.713,8.678,8.678,0,0,0-2.348-.3,5.287,5.287,0,0,0-4.693,2.442,7.785,7.785,0,0,0-1.09,2.572A13.3,13.3,0,0,0,362.1,45.1a14.369,14.369,0,0,0,.3,3.024,6.681,6.681,0,0,0,1.013,2.441,5,5,0,0,0,1.9,1.633,6.456,6.456,0,0,0,2.949.6" transform="translate(-158.436 -15.264)" fill="#c00020"></path><path id="Path_147" data-name="Path 147" d="M395.292,39.4l8.262-9.839a.982.982,0,0,1,.224-.226.713.713,0,0,1,.376-.074h2.4a.2.2,0,0,1,.225.15.26.26,0,0,1-.074.263l-5.07,6.084,5.9,12.843a.24.24,0,0,1,.017.244c-.036.088-.131.131-.281.131h-2.029a.644.644,0,0,1-.675-.376l-4.806-10.627-4.62,5.37v5.144a.386.386,0,0,1-.488.489h-1.727a.683.683,0,0,1-.4-.094.463.463,0,0,1-.131-.395V22.01a.464.464,0,0,1,.131-.394.687.687,0,0,1,.4-.094h1.727a.386.386,0,0,1,.488.488V39.322Z" transform="translate(-173.004 -9.489)" fill="#c00020"></path><path id="Path_148" data-name="Path 148" d="M132.628,81.247h-1.751c-.054,0-.089-.011-.1-.031a.2.2,0,0,1-.022-.112v-.439a.206.206,0,0,1,.022-.108c.015-.023.049-.036.1-.036h4.4c.054,0,.088.013.1.036a.211.211,0,0,1,.022.108V81.1a.207.207,0,0,1-.022.112c-.015.021-.05.031-.1.031h-1.8v5.4c0,.066-.012.108-.036.126a.219.219,0,0,1-.126.026H132.8a.243.243,0,0,1-.13-.026c-.027-.018-.04-.06-.04-.126Z" transform="translate(-57.647 -35.5)" fill="#c00020"></path><path id="Path_149" data-name="Path 149" d="M144.9,80.673c0-.065.013-.107.04-.126a.243.243,0,0,1,.13-.027h.485a.239.239,0,0,1,.135.027c.024.018.036.06.036.126v5.979c0,.067-.012.108-.036.126a.239.239,0,0,1-.135.027h-.485a.243.243,0,0,1-.13-.027c-.027-.018-.04-.06-.04-.126v-2.8h-3.161v2.8c0,.067-.012.108-.036.126a.246.246,0,0,1-.136.027h-.5a.252.252,0,0,1-.127-.027c-.03-.018-.045-.06-.045-.126V80.673q0-.1.045-.126a.252.252,0,0,1,.127-.027h.5a.246.246,0,0,1,.136.027c.024.018.036.06.036.126v2.46H144.9Z" transform="translate(-62.121 -35.5)" fill="#c00020"></path><path id="Path_150" data-name="Path 150" d="M156.5,86.753c-.021.03-.068.045-.139.045h-2.5a1.855,1.855,0,0,1-.732-.126,1.241,1.241,0,0,1-.467-.332,1.2,1.2,0,0,1-.247-.485,2.352,2.352,0,0,1-.072-.593V82.048a2.122,2.122,0,0,1,.081-.588,1.274,1.274,0,0,1,.264-.494,1.309,1.309,0,0,1,.471-.337,1.744,1.744,0,0,1,.7-.126h2.451a.154.154,0,0,1,.13.045.26.26,0,0,1,.031.144v.377a.234.234,0,0,1-.031.139.161.161,0,0,1-.13.04h-2.442a.746.746,0,0,0-.543.166.7.7,0,0,0-.167.517V83.1h2.855a.153.153,0,0,1,.13.045.26.26,0,0,1,.031.144v.34a.236.236,0,0,1-.031.135.151.151,0,0,1-.13.045h-2.855V85.37a.717.717,0,0,0,.162.49.7.7,0,0,0,.548.184h2.487q.107,0,.139.045a.256.256,0,0,1,.031.143v.377a.259.259,0,0,1-.031.144" transform="translate(-67.169 -35.493)" fill="#c00020"></path><path id="Path_151" data-name="Path 151" d="M169.414,81.438l-.3,1.383L168.3,86.4a.764.764,0,0,1-.13.288.32.32,0,0,1-.265.107h-.386a.616.616,0,0,1-.3-.063.382.382,0,0,1-.157-.269l-1.23-5.845c-.024-.078,0-.117.072-.117h.637c.09,0,.141.036.153.107l.71,3.753.261,1.455h.054l.314-1.455L168.8,80.9a.668.668,0,0,1,.13-.278.423.423,0,0,1,.346-.117h.35a.37.37,0,0,1,.3.107.718.718,0,0,1,.134.288l.754,3.43.314,1.491h.045l.287-1.5.71-3.709a.139.139,0,0,1,.153-.107h.619c.072,0,.1.039.072.117l-1.238,5.845a.385.385,0,0,1-.158.269.614.614,0,0,1-.3.063h-.386a.325.325,0,0,1-.265-.1.716.716,0,0,1-.13-.292l-.808-3.591-.287-1.374Z" transform="translate(-73.109 -35.493)" fill="#c00020"></path><path id="Path_152" data-name="Path 152" d="M185.248,83.558a3.789,3.789,0,0,1-.678,2.424,2.43,2.43,0,0,1-2.016.844,2.381,2.381,0,0,1-1.989-.835,3.8,3.8,0,0,1-.66-2.4,4.373,4.373,0,0,1,.2-1.387,3.005,3.005,0,0,1,.557-1.02,2.353,2.353,0,0,1,.844-.628,2.611,2.611,0,0,1,1.064-.215,2.872,2.872,0,0,1,1.158.219,2.191,2.191,0,0,1,.839.638,2.838,2.838,0,0,1,.508,1.01,4.881,4.881,0,0,1,.171,1.347m-.844.036a5.7,5.7,0,0,0-.076-.947,2.4,2.4,0,0,0-.278-.8,1.512,1.512,0,0,0-.552-.557,1.75,1.75,0,0,0-.9-.206,1.676,1.676,0,0,0-.835.2,1.694,1.694,0,0,0-.579.538,2.5,2.5,0,0,0-.341.79,3.918,3.918,0,0,0-.112.952,5.363,5.363,0,0,0,.09,1.019,2.324,2.324,0,0,0,.3.8,1.48,1.48,0,0,0,.561.525,1.841,1.841,0,0,0,.88.189,1.711,1.711,0,0,0,.876-.207,1.607,1.607,0,0,0,.57-.556,2.414,2.414,0,0,0,.305-.8,4.75,4.75,0,0,0,.09-.934" transform="translate(-79.318 -35.423)" fill="#c00020"></path><path id="Path_153" data-name="Path 153" d="M191.949,80.946a.507.507,0,0,1,.1-.346.463.463,0,0,1,.359-.112h2.056a2.2,2.2,0,0,1,.777.13,1.763,1.763,0,0,1,.6.368,1.623,1.623,0,0,1,.386.561,1.825,1.825,0,0,1,.135.71,1.682,1.682,0,0,1-.269.947,1.5,1.5,0,0,1-.745.588v.036a.986.986,0,0,1,.529.346,1.763,1.763,0,0,1,.252.561l.521,1.895a.172.172,0,0,1,0,.1c-.009.04-.046.059-.112.059h-.593a.281.281,0,0,1-.094-.018.123.123,0,0,1-.068-.1l-.476-1.714a1.421,1.421,0,0,0-.188-.432.939.939,0,0,0-.273-.269.979.979,0,0,0-.351-.135,2.324,2.324,0,0,0-.417-.036h-1.284v2.55c0,.067-.011.108-.035.126a.241.241,0,0,1-.135.027h-.5a.243.243,0,0,1-.13-.027c-.027-.018-.04-.06-.04-.126Zm3.583,1.347a1.293,1.293,0,0,0-.054-.363.891.891,0,0,0-.188-.337.971.971,0,0,0-.359-.247,1.469,1.469,0,0,0-.566-.094H192.8V83.37h1.5a1.619,1.619,0,0,0,.557-.086,1.027,1.027,0,0,0,.382-.234.933.933,0,0,0,.219-.341,1.178,1.178,0,0,0,.073-.417" transform="translate(-84.628 -35.486)" fill="#c00020"></path><path id="Path_154" data-name="Path 154" d="M206.564,86.756c-.015.024-.049.036-.1.036h-2.567a1.771,1.771,0,0,1-.714-.125,1.264,1.264,0,0,1-.458-.333,1.2,1.2,0,0,1-.247-.485,2.351,2.351,0,0,1-.072-.593V80.651a.162.162,0,0,1,.04-.13.2.2,0,0,1,.121-.031h.485a.213.213,0,0,1,.135.031.174.174,0,0,1,.036.13v4.66a.654.654,0,0,0,.745.736h2.5c.054,0,.088.012.1.036a.21.21,0,0,1,.022.107v.449a.232.232,0,0,1-.022.117" transform="translate(-89.237 -35.487)" fill="#c00020"></path><path id="Path_155" data-name="Path 155" d="M212.127,86.791a.486.486,0,0,1-.351-.107.469.469,0,0,1-.107-.342V80.955a.509.509,0,0,1,.1-.346.463.463,0,0,1,.359-.112l1.616-.009a3.21,3.21,0,0,1,1.226.215,2.306,2.306,0,0,1,.88.624,2.722,2.722,0,0,1,.534.988,4.341,4.341,0,0,1,.18,1.289A4.731,4.731,0,0,1,216.4,84.9a2.826,2.826,0,0,1-.5,1.006,2.265,2.265,0,0,1-.848.655,2.894,2.894,0,0,1-1.212.234Zm3.591-3.17a4.153,4.153,0,0,0-.1-.924,2.035,2.035,0,0,0-.335-.755,1.674,1.674,0,0,0-.623-.512,2.167,2.167,0,0,0-.958-.188h-1.19v4.794h1.226a2.208,2.208,0,0,0,.944-.179,1.526,1.526,0,0,0,.609-.5,2.1,2.1,0,0,0,.327-.768,4.482,4.482,0,0,0,.1-.966" transform="translate(-93.322 -35.486)" fill="#c00020"></path><path id="Path_156" data-name="Path 156" d="M227.855,80.673c0-.065.013-.107.04-.126a.242.242,0,0,1,.13-.027h.485a.239.239,0,0,1,.135.027.16.16,0,0,1,.036.126v5.979c0,.067-.013.108-.036.126a.239.239,0,0,1-.135.027h-.485a.242.242,0,0,1-.13-.027c-.027-.018-.04-.06-.04-.126Z" transform="translate(-100.459 -35.5)" fill="#c00020"></path><path id="Path_157" data-name="Path 157" d="M236.262,85.041a1.691,1.691,0,0,1-.171.781,1.611,1.611,0,0,1-.467.557,2.006,2.006,0,0,1-.7.332,3.385,3.385,0,0,1-.871.108c-.174,0-.357-.008-.548-.022s-.386-.041-.583-.077a5.054,5.054,0,0,1-.588-.144,3.66,3.66,0,0,1-.561-.224c-.066-.036-.078-.1-.036-.18l.216-.476a.1.1,0,0,1,.144-.054,5.178,5.178,0,0,0,.965.319,4.169,4.169,0,0,0,.911.112,1.9,1.9,0,0,0,1.064-.256.916.916,0,0,0,.287-1.149,1.07,1.07,0,0,0-.278-.323,2.281,2.281,0,0,0-.462-.278c-.186-.087-.4-.176-.646-.265q-.494-.179-.867-.359a2.888,2.888,0,0,1-.619-.391,1.449,1.449,0,0,1-.372-.471,1.361,1.361,0,0,1-.126-.6,1.526,1.526,0,0,1,.512-1.194,2.167,2.167,0,0,1,1.491-.458,5.592,5.592,0,0,1,.947.086,3.99,3.99,0,0,1,.93.274.11.11,0,0,1,.063.152l-.2.5c-.018.042-.034.066-.05.072a.1.1,0,0,1-.067-.01,4.753,4.753,0,0,0-.875-.256,4.34,4.34,0,0,0-.777-.077,1.3,1.3,0,0,0-.835.238.744.744,0,0,0-.3.606.727.727,0,0,0,.1.386,1.01,1.01,0,0,0,.291.3,2.709,2.709,0,0,0,.488.261q.3.126.7.287.376.144.716.3a2.757,2.757,0,0,1,.6.373,1.7,1.7,0,0,1,.417.512,1.507,1.507,0,0,1,.157.71" transform="translate(-102.159 -35.415)" fill="#c00020"></path><path id="Path_158" data-name="Path 158" d="M250.554,85.041a1.692,1.692,0,0,1-.171.781,1.624,1.624,0,0,1-.467.557,2.009,2.009,0,0,1-.7.332,3.379,3.379,0,0,1-.871.108c-.174,0-.356-.008-.548-.022s-.386-.041-.584-.077a5.053,5.053,0,0,1-.588-.144,3.682,3.682,0,0,1-.561-.224c-.065-.036-.078-.1-.036-.18l.215-.476a.1.1,0,0,1,.144-.054,5.191,5.191,0,0,0,.965.319,4.172,4.172,0,0,0,.911.112,1.9,1.9,0,0,0,1.065-.256.918.918,0,0,0,.287-1.149,1.065,1.065,0,0,0-.278-.323,2.265,2.265,0,0,0-.462-.278c-.186-.087-.4-.176-.646-.265q-.494-.179-.867-.359a2.87,2.87,0,0,1-.619-.391,1.451,1.451,0,0,1-.373-.471,1.369,1.369,0,0,1-.126-.6,1.527,1.527,0,0,1,.512-1.194,2.164,2.164,0,0,1,1.49-.458,5.6,5.6,0,0,1,.947.086,3.984,3.984,0,0,1,.929.274.11.11,0,0,1,.063.152l-.2.5c-.018.042-.034.066-.049.072a.1.1,0,0,1-.068-.01,4.74,4.74,0,0,0-.875-.256,4.339,4.339,0,0,0-.777-.077,1.3,1.3,0,0,0-.835.238.744.744,0,0,0-.3.606.727.727,0,0,0,.1.386,1.017,1.017,0,0,0,.291.3,2.709,2.709,0,0,0,.488.261q.3.126.7.287.376.144.716.3a2.745,2.745,0,0,1,.6.373,1.688,1.688,0,0,1,.417.512,1.507,1.507,0,0,1,.157.71" transform="translate(-108.46 -35.415)" fill="#c00020"></path><path id="Path_159" data-name="Path 159" d="M257.109,81.247h-1.751c-.054,0-.088-.011-.1-.031a.2.2,0,0,1-.023-.112v-.439a.2.2,0,0,1,.023-.108c.015-.023.049-.036.1-.036h4.4c.054,0,.089.013.1.036a.211.211,0,0,1,.022.108V81.1a.207.207,0,0,1-.022.112c-.015.021-.049.031-.1.031h-1.8v5.4c0,.066-.012.108-.036.126a.218.218,0,0,1-.125.026h-.512a.244.244,0,0,1-.131-.026c-.027-.018-.04-.06-.04-.126Z" transform="translate(-112.529 -35.5)" fill="#c00020"></path><path id="Path_160" data-name="Path 160" d="M265.383,80.946a.51.51,0,0,1,.1-.346.464.464,0,0,1,.359-.112H267.9a2.194,2.194,0,0,1,.777.13,1.765,1.765,0,0,1,.6.368,1.631,1.631,0,0,1,.386.561,1.835,1.835,0,0,1,.135.71,1.682,1.682,0,0,1-.27.947,1.5,1.5,0,0,1-.745.588v.036a.981.981,0,0,1,.529.346,1.764,1.764,0,0,1,.252.561l.521,1.895a.172.172,0,0,1,0,.1c-.009.04-.046.059-.112.059h-.593a.284.284,0,0,1-.094-.018.124.124,0,0,1-.067-.1l-.476-1.714a1.449,1.449,0,0,0-.188-.432.941.941,0,0,0-.274-.269.98.98,0,0,0-.35-.135,2.33,2.33,0,0,0-.418-.036h-1.284v2.55c0,.067-.012.108-.036.126a.237.237,0,0,1-.134.027h-.5a.24.24,0,0,1-.13-.027c-.027-.018-.04-.06-.04-.126Zm3.582,1.347a1.272,1.272,0,0,0-.054-.363.876.876,0,0,0-.188-.337.971.971,0,0,0-.359-.247,1.465,1.465,0,0,0-.566-.094h-1.562V83.37h1.5a1.618,1.618,0,0,0,.556-.086,1.028,1.028,0,0,0,.382-.234.942.942,0,0,0,.22-.341,1.178,1.178,0,0,0,.072-.417" transform="translate(-117.004 -35.486)" fill="#c00020"></path><path id="Path_161" data-name="Path 161" d="M279.989,86.753c-.021.03-.068.045-.139.045h-2.5a1.852,1.852,0,0,1-.731-.126,1.241,1.241,0,0,1-.467-.332,1.2,1.2,0,0,1-.247-.485,2.353,2.353,0,0,1-.072-.593V82.048a2.123,2.123,0,0,1,.081-.588,1.267,1.267,0,0,1,.264-.494,1.3,1.3,0,0,1,.471-.337,1.743,1.743,0,0,1,.7-.126H279.8a.154.154,0,0,1,.13.045.259.259,0,0,1,.032.144v.377a.234.234,0,0,1-.032.139.161.161,0,0,1-.13.04h-2.442a.748.748,0,0,0-.543.166.7.7,0,0,0-.166.517V83.1h2.855a.151.151,0,0,1,.13.045.255.255,0,0,1,.032.144v.34a.232.232,0,0,1-.032.135.15.15,0,0,1-.13.045h-2.855V85.37a.716.716,0,0,0,.162.49.7.7,0,0,0,.548.184h2.487q.107,0,.139.045a.256.256,0,0,1,.031.143v.377a.259.259,0,0,1-.031.144" transform="translate(-121.613 -35.493)" fill="#c00020"></path><path id="Path_162" data-name="Path 162" d="M289.142,86.791a.4.4,0,0,1-.13-.018c-.033-.012-.061-.051-.085-.117l-.45-1.32h-2.532l-.449,1.32a.182.182,0,0,1-.188.135H284.7c-.06,0-.1-.017-.112-.049a.187.187,0,0,1,0-.121l2.029-5.773a.592.592,0,0,1,.162-.283.549.549,0,0,1,.3-.076h.269a.485.485,0,0,1,.328.081.73.73,0,0,1,.157.278l2.021,5.773a.144.144,0,0,1,0,.116c-.015.036-.052.054-.112.054Zm-1.5-4.059-.422-1.32h-.045l-.4,1.275-.61,1.921h2.083Z" transform="translate(-125.465 -35.486)" fill="#c00020"></path><path id="Path_163" data-name="Path 163" d="M301,81.967h-.045a1.86,1.86,0,0,0-.09.211l-.157.4q-.086.216-.158.4c-.048.126-.074.2-.08.216q-.027.072-.108.265t-.184.449l-.22.543q-.117.288-.225.543l-.188.449-.108.256a.653.653,0,0,1-.162.283.461.461,0,0,1-.3.076h-.3a.482.482,0,0,1-.3-.076.627.627,0,0,1-.167-.283q-.028-.072-.112-.265t-.189-.444q-.1-.252-.225-.539c-.08-.191-.156-.371-.225-.538s-.132-.315-.189-.444-.094-.217-.112-.264l-.458-1.15h-.054v4.588c0,.066-.012.108-.036.126a.234.234,0,0,1-.133.027h-.444a.238.238,0,0,1-.129-.027c-.026-.018-.04-.06-.04-.126V80.953a.534.534,0,0,1,.09-.328.411.411,0,0,1,.349-.121h.241a.552.552,0,0,1,.3.067.619.619,0,0,1,.193.292l1.237,3.071c.012.024.044.1.095.238s.107.282.17.44.119.305.17.441.083.214.094.237h.036c.005-.023.035-.1.089-.233s.11-.274.171-.426.115-.3.165-.427.083-.21.094-.234l.135-.337q.1-.247.229-.57t.278-.687q.148-.363.273-.678c.084-.21.155-.391.216-.543s.1-.249.116-.292a.6.6,0,0,1,.2-.292.558.558,0,0,1,.3-.067h.241a.411.411,0,0,1,.354.121.557.557,0,0,1,.085.328v5.692c0,.066-.012.108-.035.126a.235.235,0,0,1-.133.027h-.444a.239.239,0,0,1-.129-.027c-.027-.018-.04-.06-.04-.126Z" transform="translate(-130.441 -35.493)" fill="#c00020"></path><path id="Path_164" data-name="Path 164" d="M309.477,80.673q0-.1.04-.126a.244.244,0,0,1,.131-.027h.485a.238.238,0,0,1,.134.027c.024.018.036.06.036.126v5.979c0,.067-.012.108-.036.126a.239.239,0,0,1-.134.027h-.485a.244.244,0,0,1-.131-.027c-.027-.018-.04-.06-.04-.126Z" transform="translate(-136.445 -35.5)" fill="#c00020"></path><path id="Path_165" data-name="Path 165" d="M318.023,80.658c0-.066.013-.108.04-.126a.242.242,0,0,1,.13-.026h.467a.244.244,0,0,1,.13.026c.027.018.04.06.04.126V86.35a.526.526,0,0,1-.09.336.43.43,0,0,1-.35.112h-.234a.416.416,0,0,1-.291-.081,1.525,1.525,0,0,1-.211-.278L315.518,82.9l-.71-1.221h-.027v4.965c0,.066-.012.108-.035.126a.241.241,0,0,1-.135.026h-.466a.245.245,0,0,1-.126-.026c-.03-.018-.045-.06-.045-.126V80.953a.51.51,0,0,1,.094-.336.434.434,0,0,1,.346-.112h.234a.4.4,0,0,1,.283.081,1.6,1.6,0,0,1,.211.278l2.092,3.457.763,1.3h.027Z" transform="translate(-138.427 -35.494)" fill="#c00020"></path><path id="Path_166" data-name="Path 166" d="M327.915,86.088c.054,0,.127,0,.22-.009s.2-.016.314-.031.238-.036.363-.063a1.938,1.938,0,0,0,.359-.112v-2.02a1.243,1.243,0,0,0-.184-.023c-.063,0-.125,0-.184,0a3.284,3.284,0,0,0-.651.068,2.835,2.835,0,0,0-.66.22.7.7,0,0,1-.139.04c-.027,0-.055-.019-.085-.067l-.171-.4c-.041-.072-.021-.138.063-.2a2.34,2.34,0,0,1,.7-.3,3.28,3.28,0,0,1,.826-.108q.233,0,.386.01a2.566,2.566,0,0,1,.305.036.756.756,0,0,1,.467.22.79.79,0,0,1,.126.5v2.263a.285.285,0,0,1-.144.269,2.226,2.226,0,0,1-.53.242,3.993,3.993,0,0,1-.561.135c-.182.03-.354.051-.516.063s-.294.018-.4.018a3.127,3.127,0,0,1-1.122-.188,2.107,2.107,0,0,1-.84-.579,2.649,2.649,0,0,1-.53-.988,4.813,4.813,0,0,1-.184-1.414,4.512,4.512,0,0,1,.193-1.364,3.086,3.086,0,0,1,.548-1.042,2.393,2.393,0,0,1,.867-.664,2.737,2.737,0,0,1,1.148-.234,5.614,5.614,0,0,1,.826.067,2.982,2.982,0,0,1,.907.3.142.142,0,0,1,.063.072.177.177,0,0,1-.027.134l-.2.45a.219.219,0,0,1-.067.081.129.129,0,0,1-.1-.009,2.693,2.693,0,0,0-.669-.215,3.751,3.751,0,0,0-.713-.072,1.782,1.782,0,0,0-.9.211,1.737,1.737,0,0,0-.6.561,2.45,2.45,0,0,0-.332.8,4.214,4.214,0,0,0-.1.938,4.758,4.758,0,0,0,.09.952,2.131,2.131,0,0,0,.305.764,1.475,1.475,0,0,0,.588.507,2.111,2.111,0,0,0,.939.184" transform="translate(-143.355 -35.43)" fill="#c00020"></path></g></svg> 